<?xml version="1.0" encoding="utf-8"?>
<!-- Generator: Adobe Illustrator 24.0.1, SVG Export Plug-In . SVG Version: 6.00 Build 0)  -->
<svg version="1.1" id="Layer_1" xmlns="http://www.w3.org/2000/svg" xmlns:xlink="http://www.w3.org/1999/xlink" x="0px" y="0px"
	 width="190px" height="76.8px" viewBox="0 0 190 76.8" style="enable-background:new 0 0 190 76.8;" xml:space="preserve">
<style type="text/css">
	.st0{opacity:0.93;}
	.st1{fill:#EFAF00;}
	.st2{fill:#7C5B00;}
	.st3{opacity:0.15;enable-background:new    ;}
	.st4{fill:#69C61D;}
	.st5{fill:#37670F;}
	.st6{fill:#00B8DB;}
	.st7{fill:url(#SVGID_1_);}
	.st8{fill:#006072;}
	.st9{fill:#FFFFFF;}
	.st10{fill:#6C757D;}
</style>
<g>
	<g>
		<g>
			<g>
				<g class="st0">
					<g>
						<g>
							<path class="st1" d="M27.3,21.5c1,0,1.9,0.3,2.7,0.8l23.5,16.6c1.5,1,1.5,2.7,0,3.7L30,59.2c-0.8,0.5-1.7,0.8-2.7,0.8
								s-1.9-0.3-2.7-0.8L1.1,42.6c-1.5-1-1.5-2.7,0-3.7l23.5-16.6C25.3,21.7,26.3,21.5,27.3,21.5z"/>
						</g>
					</g>
					<path class="st2" d="M54.5,40.8c0,0.1,0,0.2-0.1,0.3c0,0.1,0,0.1,0,0.1v0.1c0,0.1-0.1,0.1-0.1,0.1s0,0.1-0.1,0.1
						c0,0.1-0.1,0.1-0.1,0.1c0,0.1-0.1,0.1-0.1,0.2c0,0.1-0.1,0.1-0.1,0.1C54,42,54,42.1,54,42.1c0,0.1-0.1,0.1-0.1,0.1
						c-0.1,0.1-0.1,0.1-0.1,0.1l-0.1,0.1c-0.1,0.1-0.2,0.1-0.3,0.2L30,59.2c-0.1,0.1-0.3,0.2-0.4,0.3l-0.1,0.1
						c-0.1,0.1-0.2,0.1-0.3,0.1c-0.1,0-0.1,0-0.1,0.1c-0.1,0.1-0.3,0.1-0.4,0.1c0,0,0,0-0.1,0C28.5,60,28.3,60,28.1,60
						C28,60,28,60,28,60c-0.1,0-0.3,0.1-0.4,0.1s-0.2,0-0.3,0c-0.1,0-0.2,0-0.3,0c-0.1,0-0.3,0-0.5-0.1h-0.1
						c-0.2-0.1-0.4-0.1-0.6-0.1c0,0,0,0-0.1,0s-0.1-0.1-0.2-0.1s-0.1-0.1-0.1-0.1c-0.1,0-0.1-0.1-0.2-0.1s-0.1-0.1-0.1-0.1
						c-0.1-0.1-0.1-0.1-0.2-0.1s-0.1-0.1-0.1-0.1c-0.1-0.1-0.2-0.1-0.3-0.2L1.1,42.6C0.4,42.1,0,41.4,0,40.7v2.5
						c0,0.7,0.4,1.3,1.1,1.9l23.5,16.6c0.1,0.1,0.2,0.1,0.3,0.2C25,62,25,62,25,62c0.1,0.1,0.1,0.1,0.2,0.1s0.1,0.1,0.1,0.1
						c0.1,0,0.1,0.1,0.2,0.1s0.1,0.1,0.1,0.1c0.1,0,0.1,0.1,0.2,0.1l0,0l0,0c0.2,0.1,0.4,0.1,0.6,0.1c0,0,0,0,0.1,0l0,0
						c0.1,0,0.3,0.1,0.5,0.1h0.1c0.1,0,0.1,0,0.3,0c0.1,0,0.2,0,0.3,0l0,0c0.1,0,0.3,0,0.4-0.1c0,0,0,0,0.1,0h0.1
						c0.2,0,0.3-0.1,0.5-0.1l0,0l0,0c0.1-0.1,0.3-0.1,0.4-0.1s0.1,0,0.1-0.1c0.1-0.1,0.2-0.1,0.3-0.1c0,0,0,0,0.1,0h0.1
						c0.1-0.1,0.3-0.2,0.4-0.3l23.5-16.6c0.1-0.1,0.2-0.1,0.3-0.2l0.1-0.1c0.1-0.1,0.1-0.1,0.1-0.1s0,0,0.1-0.1l0.1-0.1
						c0.1-0.1,0.1-0.1,0.1-0.1c0-0.1,0.1-0.1,0.1-0.1c0.1-0.1,0.1-0.1,0.1-0.2c0,0,0-0.1,0.1-0.1v-0.1c0,0,0-0.1,0.1-0.1
						c0-0.1,0.1-0.1,0.1-0.1v-0.1v-0.1v-0.1c0-0.1,0.1-0.2,0.1-0.3v-0.1v-0.1v-2.5C54.5,40.8,54.5,40.8,54.5,40.8z"/>
				</g>
				<path class="st3" d="M50.3,36.6L42.7,42L30,51c-0.1,0.1-0.3,0.2-0.4,0.3c0,0,0,0-0.1,0c0,0,0,0-0.1,0c-0.1,0.1-0.2,0.1-0.3,0.1
					c-0.1,0-0.1,0-0.1,0.1c-0.1,0.1-0.3,0.1-0.4,0.1l0,0l0,0c-0.1,0.1-0.3,0.1-0.5,0.1H28c0,0,0,0-0.1,0s-0.3,0.1-0.4,0.1h-0.1
					c-0.1,0-0.2,0-0.3,0c-0.1,0-0.1,0-0.3,0h-0.1c-0.1,0-0.3,0-0.5-0.1l0,0c0,0,0,0-0.1,0c-0.2,0-0.4-0.1-0.6-0.1l0,0l0,0
					c-0.1,0-0.1-0.1-0.2-0.1s-0.1,0-0.1-0.1c-0.1,0-0.1-0.1-0.2-0.1s-0.1-0.1-0.1-0.1c-0.1-0.1-0.1-0.1-0.2-0.1S24.6,51,24.6,51
					c-0.1-0.1-0.2-0.1-0.3-0.2l-12.6-9l-7.6-5.4l-2.5,1.8l7.7,5.3L24,53.7c0.1,0.1,0.3,0.1,0.3,0.2c0.1,0,0.1,0.1,0.1,0.1
					c0.1,0.1,0.1,0.1,0.3,0.1c0.1,0,0.1,0.1,0.1,0.1c0.1,0.1,0.1,0.1,0.3,0.1c0.1,0,0.1,0.1,0.2,0.1s0.1,0.1,0.3,0.1l0,0
					c0,0,0,0,0.1,0c0.2,0.1,0.4,0.1,0.6,0.1h0.1l0,0c0.2,0,0.4,0.1,0.6,0.1h0.1c0.1,0,0.2,0,0.3,0c0.1,0,0.3,0,0.3,0s0,0,0.1,0
					c0.2,0,0.4,0,0.5-0.1c0,0,0,0,0.1,0h0.1c0.2-0.1,0.4-0.1,0.6-0.1c0,0,0,0,0.1,0l0,0c0.1-0.1,0.3-0.1,0.4-0.1s0.1,0,0.1-0.1
					c0.1-0.1,0.2-0.1,0.3-0.1h0.1c0,0,0.1,0,0.1-0.1c0.2-0.1,0.4-0.2,0.5-0.3l14.7-10.2l7.7-5.3L50.3,36.6z"/>
			</g>
			<g>
				<g class="st0">
					<g>
						<g>
							<path class="st4" d="M27.3,10.7c1,0,1.9,0.3,2.7,0.8l23.5,16.6c1.5,1,1.5,2.7,0,3.7L30,48.5c-0.7,0.5-1.7,0.8-2.7,0.8
								s-1.9-0.3-2.7-0.8L1.2,31.9c-1.5-1-1.5-2.7,0-3.7l23.5-16.6C25.3,11,26.3,10.7,27.3,10.7z"/>
						</g>
					</g>
					<path class="st5" d="M54.5,30.1c0,0.1,0,0.2-0.1,0.3c0,0.1,0,0.1,0,0.1v0.1c0,0.1-0.1,0.1-0.1,0.1s0,0.1-0.1,0.1
						c0,0.1-0.1,0.1-0.1,0.1c0,0.1-0.1,0.1-0.1,0.2s-0.1,0.1-0.1,0.1c0.1,0.1,0.1,0.2,0.1,0.2c0,0.1-0.1,0.1-0.1,0.1
						c-0.1,0.1-0.1,0.1-0.1,0.1l-0.1,0.1c-0.1,0.1-0.2,0.1-0.3,0.2L30,48.5c-0.1,0.1-0.3,0.2-0.4,0.3l-0.1,0.1
						C29.4,49,29.3,49,29.2,49c-0.1,0-0.1,0-0.1,0.1c-0.1,0.1-0.3,0.1-0.4,0.1c0,0,0,0-0.1,0c-0.1,0.1-0.3,0.1-0.5,0.1
						c-0.1,0-0.1,0-0.1,0c-0.1,0-0.3,0.1-0.4,0.1s-0.2,0-0.3,0c-0.1,0-0.2,0-0.3,0c-0.1,0-0.3,0-0.5-0.1h-0.1
						c-0.2-0.1-0.4-0.1-0.6-0.1c0,0,0,0-0.1,0s-0.1-0.1-0.2-0.1S25.4,49,25.4,49c0-0.1-0.1-0.1-0.1-0.1c-0.1,0-0.1-0.1-0.1-0.1
						c-0.1-0.1-0.1-0.1-0.2-0.1s-0.1-0.1-0.1-0.1c-0.1-0.1-0.2-0.1-0.3-0.2L1.1,31.9C0.4,31.4,0,30.7,0,30v2.5
						c0,0.7,0.4,1.3,1.1,1.9L24.6,51c0.1,0.1,0.2,0.1,0.3,0.2c0.1,0,0.1,0.1,0.1,0.1c0.1,0.1,0.1,0.1,0.2,0.1s0.1,0.1,0.1,0.1
						c0.1,0,0.1,0.1,0.2,0.1s0.1,0.1,0.1,0.1c0.1,0,0.1,0.1,0.2,0.1l0,0l0,0c0.2,0.1,0.4,0.1,0.6,0.1c0,0,0,0,0.1,0l0,0
						c0.1,0,0.3,0.1,0.5,0.1h0.1c0.1,0,0.1,0,0.3,0c0.1,0,0.2,0,0.3,0l0,0c0.1,0,0.3,0,0.4-0.1c0,0,0,0,0.1,0h0.1
						c0.2,0,0.3-0.1,0.5-0.1l0,0l0,0c0.1-0.1,0.3-0.1,0.4-0.1s0.1,0,0.1-0.1c0.1-0.1,0.2-0.1,0.3-0.1c0,0,0,0,0.1,0h0.1
						c0.1-0.1,0.3-0.2,0.4-0.3l23.5-16.6c0.1-0.1,0.2-0.1,0.3-0.2l0.1-0.1c0.1-0.1,0.1-0.1,0.1-0.1s0,0,0.1-0.1l0.1-0.1
						c0.1-0.1,0.1-0.1,0.1-0.1c0-0.1,0.1-0.1,0.1-0.1c0.1-0.1,0.1-0.1,0.1-0.2c0,0,0-0.1,0.1-0.1v-0.1c0,0,0-0.1,0.1-0.1
						c0-0.1,0.1-0.1,0.1-0.1v-0.1V33l0,0c0-0.1,0.1-0.2,0.1-0.3v-0.1v-0.1V30C54.5,30,54.5,30,54.5,30.1z"/>
				</g>
				<path class="st3" d="M50.3,25.9l-7.6,5.4l-12.8,9c-0.1,0.1-0.3,0.2-0.4,0.3c0,0,0,0-0.1,0c0,0,0,0-0.1,0
					c-0.1,0.1-0.2,0.1-0.3,0.1s-0.1,0-0.1,0.1c-0.1,0.1-0.3,0.1-0.4,0.1l0,0l0,0C28.4,41,28.2,41,28,41h-0.1c0,0,0,0-0.1,0
					s-0.3,0.1-0.4,0.1h-0.1c-0.1,0-0.2,0-0.3,0c-0.1,0-0.1,0-0.3,0h-0.1c-0.1,0-0.3,0-0.5-0.1l0,0c0,0,0,0-0.1,0
					c-0.2,0-0.4-0.1-0.6-0.1l0,0l0,0c-0.1,0-0.1-0.1-0.2-0.1s-0.1,0-0.1-0.1c-0.1,0-0.1-0.1-0.2-0.1s-0.1-0.1-0.1-0.1
					c-0.1-0.1-0.1-0.1-0.2-0.1s-0.1-0.1-0.1-0.1c-0.1-0.1-0.2-0.1-0.3-0.2l-12.6-9L4,25.7l-2.5,1.8l7.7,5.3l14.7,10.3
					c0.1,0.1,0.3,0.1,0.3,0.2c0.1,0,0.1,0.1,0.1,0.1c0.1,0.1,0.1,0.1,0.3,0.1c0.1,0,0.1,0.1,0.1,0.1c0.1,0.1,0.1,0.1,0.3,0.1
					c0.1,0,0.1,0.1,0.2,0.1s0.1,0.1,0.3,0.1l0,0c0,0,0,0,0.1,0C25.8,44,26,44,26.2,44h0.1l0,0c0.2,0,0.4,0.1,0.6,0.1H27
					c0.1,0,0.2,0,0.3,0c0.1,0,0.3,0,0.3,0s0,0,0.1,0c0.2,0,0.4,0,0.5-0.1c0,0,0,0,0.1,0h0.1c0.2-0.1,0.4-0.1,0.6-0.1c0,0,0,0,0.1,0
					l0,0c0.1-0.1,0.3-0.1,0.4-0.1s0.1,0,0.1-0.1c0.1-0.1,0.2-0.1,0.3-0.1H30c0,0,0.1,0,0.1-0.1c0.2-0.1,0.4-0.2,0.5-0.3L45.2,33
					l7.7-5.3L50.3,25.9z"/>
			</g>
			<g class="st0">
				<g>
					<g>
						<path class="st6" d="M27.3,0c1,0,1.9,0.3,2.7,0.8l23.5,16.6c1.5,1,1.5,2.7,0,3.7L30,37.8c-0.7,0.5-1.7,0.8-2.7,0.8
							s-1.9-0.3-2.7-0.8L1.2,21.1c-1.5-1-1.5-2.7,0-3.7L24.6,0.8C25.3,0.3,26.3,0,27.3,0z"/>
					</g>
				</g>
				<g>
					<g>
						
							<linearGradient id="SVGID_1_" gradientUnits="userSpaceOnUse" x1="27.25" y1="-789.1" x2="27.25" y2="-751.4" gradientTransform="matrix(1 0 0 -1 0 -751)">
							<stop  offset="0" style="stop-color:#00B8DB"/>
							<stop  offset="0.9904" style="stop-color:#99E3F1"/>
						</linearGradient>
						<path class="st7" d="M27.3,0.4c1,0,1.9,0.3,2.6,0.8l23,16.2c1.5,1,1.5,2.7,0,3.7L29.8,37.3c-0.7,0.5-1.7,0.8-2.6,0.8
							s-1.9-0.3-2.6-0.8l-23-16.2c-1.5-1-1.5-2.7,0-3.7l23-16.2C25.4,0.6,26.4,0.4,27.3,0.4z"/>
					</g>
				</g>
				<path class="st8" d="M54.5,19.4c0,0.1,0,0.2-0.1,0.3c0,0.1,0,0.1,0,0.1v0.1c0,0.1-0.1,0.1-0.1,0.1s0,0.1-0.1,0.1
					c0,0.1-0.1,0.1-0.1,0.1S54,20.3,54,20.4s-0.1,0.1-0.1,0.1c0.1,0.1,0.1,0.1,0.1,0.1c0,0.1-0.1,0.1-0.1,0.1
					c-0.1,0.1-0.1,0.1-0.1,0.1l-0.1,0.1c-0.1,0.1-0.2,0.1-0.3,0.2L30,37.8c-0.1,0.1-0.3,0.2-0.4,0.3l-0.1,0.1
					c-0.1,0-0.3,0.1-0.3,0.1s-0.1,0-0.1,0.1c-0.1,0.1-0.3,0.1-0.4,0.1c0,0,0,0-0.1,0c-0.1,0.1-0.3,0.1-0.5,0.1c-0.1,0-0.1,0-0.1,0
					c-0.1,0-0.3,0.1-0.4,0.1s-0.2,0-0.3,0s-0.2,0-0.3,0c-0.1,0-0.3,0-0.5-0.1h-0.1c-0.2,0-0.4-0.1-0.5-0.1h-0.1
					c-0.1,0-0.1-0.1-0.2-0.1s-0.1-0.1-0.1-0.1c-0.1,0-0.1-0.1-0.2-0.1s-0.1-0.1-0.1-0.1C25.1,38,25,38,25,38c-0.1,0-0.1-0.1-0.1-0.1
					c-0.1-0.1-0.2-0.1-0.3-0.2L1.1,21.1C0.4,20.6,0,19.9,0,19.2v2.5c0,0.7,0.4,1.3,1.1,1.9l23.5,16.6c0.1,0.1,0.2,0.1,0.3,0.2
					c0.1,0,0.1,0.1,0.1,0.1c0.1,0.1,0.1,0.1,0.2,0.1s0.1,0.1,0.1,0.1c0.1,0,0.1,0.1,0.2,0.1s0.1,0.1,0.1,0.1c0.1,0,0.1,0.1,0.2,0.1
					l0,0c0,0,0,0,0.1,0c0.2,0.1,0.4,0.1,0.5,0.1c0,0,0,0,0.1,0l0,0c0.1,0,0.3,0.1,0.5,0.1h0.1c0.1,0,0.1,0,0.3,0s0.2,0,0.3,0l0,0
					c0.1,0,0.3,0,0.4-0.1c0,0,0,0,0.1,0h0.1c0.2,0,0.3-0.1,0.5-0.1l0,0l0,0c0.1-0.1,0.3-0.1,0.4-0.1s0.1,0,0.1-0.1
					c0.1-0.1,0.2-0.1,0.3-0.1c0,0,0,0,0.1,0h0.1c0.1-0.1,0.3-0.2,0.4-0.3l23.5-16.6c0.1-0.1,0.2-0.1,0.3-0.2l0.1-0.1
					c0.1-0.1,0.1-0.1,0.1-0.1s0,0,0.1-0.1l0.1-0.1c0.1-0.1,0.1-0.1,0.1-0.1c0-0.1,0.1-0.1,0.1-0.1c0.1-0.1,0.1-0.1,0.1-0.2
					c0,0,0-0.1,0.1-0.1v-0.1c0,0,0-0.1,0.1-0.1c0-0.1,0.1-0.1,0.1-0.1v-0.1v-0.1v-0.1c0-0.1,0.1-0.2,0.1-0.3v-0.1v-0.1L54.5,19.4
					C54.5,19.3,54.5,19.3,54.5,19.4z"/>
			</g>
		</g>
		<g>
			<g>
				<path class="st9" d="M74.8,40.4l-2.3,5.8h-6.9l13.1-30.6h6.1l12.9,30.6h-6.9l-2.3-5.8H74.8L74.8,40.4L74.8,40.4z M81.6,23.4
					l-4.4,11.2h9L81.6,23.4z"/>
				<path class="st9" d="M111.4,21.7v24.5h-6.5V21.7H94.8v-5.9h26.8v5.9H111.4z"/>
				<path class="st9" d="M152.4,32.4c0,9.1-5.5,14.5-13.8,14.5s-13.7-5.4-13.7-14.5V15.7h6.5v16.7c0,5.1,2.9,8.4,7.2,8.4
					c4.4,0,7.4-3.4,7.4-8.4V15.7h6.5L152.4,32.4L152.4,32.4z"/>
				<path class="st9" d="M190,46.2h-6.5V29.7l-7.6,11.9h-3.8v-0.1l-7.7-12.1l0.1,16.6H158V15.7h4.6L174,33.6l11.4-17.9h4.6V46.2
					L190,46.2z"/>
			</g>
		</g>
	</g>
	<g>
		<path class="st10" d="M2.1,72.7v3h-2v-9.5h4.1c2.2,0,3.8,1.3,3.8,3.3c0,1.4-0.8,2.4-2,3l2.6,3.3H6.1l-2.3-3H2.1V72.7z M4.1,70.9
			c1,0,1.9-0.6,1.9-1.4c0-0.9-0.8-1.4-1.9-1.4h-2V71L4.1,70.9L4.1,70.9z"/>
		<path class="st10" d="M11.6,70.1h4.5v1.8h-4.5v1.9h5v1.8h-7v-9.5h7.1V68h-5v2.1H11.6z"/>
		<path class="st10" d="M25.8,69.1h-2c-0.1-0.8-0.7-1.4-1.8-1.4c-1,0-1.7,0.4-1.7,1.2c0,0.6,0.5,0.9,1.3,1.1l1.2,0.2
			c1.8,0.4,2.9,1.1,2.9,2.7c0,1.8-1.5,3-3.8,3s-4-1.2-4.2-3.4h2c0.2,1,1,1.6,2.3,1.6c1,0,1.6-0.4,1.6-1c0-0.4-0.2-0.8-1.2-1
			l-1.6-0.3c-1.9-0.4-2.7-1.3-2.7-2.8c0-1.8,1.5-3.1,3.6-3.1C23.4,65.9,25.5,66.6,25.8,69.1z"/>
		<path class="st10" d="M31.7,68v7.7h-2V68h-3.2v-1.9h8.4V68H31.7z"/>
		<path class="st10" d="M42,73.8l-0.7,1.8h-2.2l4.1-9.6h1.9l4.1,9.6h-2.1l-0.7-1.8H42z M44.1,68.5L42.7,72h2.8L44.1,68.5z"/>
		<path class="st10" d="M54.1,66.1c2.3,0,3.9,1.3,3.9,3.4S56.4,73,53.9,73h-1.4v2.6h-2v-9.5H54.1z M54,71.2c1.1,0,1.9-0.7,1.9-1.7
			c0-0.9-0.8-1.5-1.9-1.5h-1.6v3.2H54z"/>
		<path class="st10" d="M61.1,75.7h-2v-9.5h2V75.7z"/>
		<path class="st10" d="M70.4,66.1c2.9,0,5.1,2,5.1,4.7c0,2.8-2.2,4.8-5.1,4.8h-3.7v-9.5H70.4z M70.4,73.8c1.7,0,3-1.3,3-2.9
			s-1.3-2.9-3-2.9h-1.7v5.8H70.4z"/>
		<path class="st10" d="M86.7,70.9c0,2.8-2.2,5-5,5s-5-2.2-5-5s2.2-5,5-5S86.7,68.1,86.7,70.9z M84.7,70.9c0-1.7-1.2-3.1-2.9-3.1
			c-1.7,0-2.9,1.4-2.9,3.1s1.2,3.1,2.9,3.1C83.4,74,84.7,72.6,84.7,70.9z"/>
		<path class="st10" d="M95.8,71.8h2.1c-0.4,2.4-2.2,4.1-4.7,4.1c-2.8,0-5-2.1-5-5s2.2-5,5-5c2.5,0,4.3,1.6,4.7,4.1h-2.1
			c-0.3-1.4-1.2-2.1-2.6-2.1c-1.7,0-2.9,1.2-2.9,3s1.2,3,2.9,3C94.5,73.9,95.4,73.2,95.8,71.8z"/>
		<path class="st10" d="M107.8,71.3c0,2.8-1.7,4.5-4.3,4.5c-2.6,0-4.3-1.7-4.3-4.5v-5.2h2v5.2c0,1.6,0.9,2.6,2.3,2.6
			s2.3-1.1,2.3-2.6v-5.2h2V71.3z"/>
		<path class="st10" d="M119.6,75.7h-2v-5.2l-2.4,3.7H114l0,0l-2.4-3.8v5.2h-2v-9.5h1.5l3.6,5.6l3.6-5.6h1.4L119.6,75.7L119.6,75.7z
			"/>
		<path class="st10" d="M123.5,70.1h4.5v1.8h-4.5v1.9h5v1.8h-7.1v-9.5h7.1V68h-5V70.1z"/>
		<path class="st10" d="M138.7,75.7h-1.6l-5-5.8v5.8h-2v-9.5h1.5l5,5.9v-5.9h2v9.5H138.7z"/>
		<path class="st10" d="M145.1,68v7.7h-2V68h-3.2v-1.9h8.4V68H145.1z"/>
		<path class="st10" d="M150.2,73.8l-0.7,1.8h-2.2l4.1-9.6h1.9l4.1,9.6h-2.1l-0.7-1.8H150.2z M152.4,68.5L151,72h2.8L152.4,68.5z"/>
		<path class="st10" d="M161.7,68v7.7h-2V68h-3.2v-1.9h8.4V68H161.7z"/>
		<path class="st10" d="M168.1,75.7h-2v-9.5h2V75.7z"/>
		<path class="st10" d="M179.7,70.9c0,2.8-2.2,5-5,5s-5-2.2-5-5s2.2-5,5-5S179.7,68.1,179.7,70.9z M177.7,70.9
			c0-1.7-1.2-3.1-2.9-3.1s-2.9,1.4-2.9,3.1s1.2,3.1,2.9,3.1C176.4,74,177.7,72.6,177.7,70.9z"/>
		<path class="st10" d="M190,75.7h-1.6l-5-5.8v5.8h-2v-9.5h1.5l5,5.9v-5.9h2v9.5H190z"/>
	</g>
</g>
</svg>
